<svg>
  <path d="M38.804 31.307h2.27v-4.68h1.143c.64 0 .9.09 1.16.584l1.576 3.16c.399.795.797.936 1.715.936h1.195v-1.96h-.225c-.381 0-.675-.035-.866-.406l-1.195-2.419a1.42 1.42 0 0 0-.606-.636v-.035c.52-.106 2.044-1.042 2.044-3.302 0-2.366-1.577-3.779-3.828-3.779h-5.509v1.96h1.126zm2.27-6.657v-3.92h1.835c1.109 0 1.785.707 1.785 1.943 0 1.253-.676 1.977-1.82 1.977zm7.395 2.155c0 2.56 1.82 4.714 4.746 4.714 2.2 0 3.552-1.36 3.552-1.36l-.919-1.553s-1.056 1.006-2.477 1.006c-1.333 0-2.477-.83-2.65-2.42h6.097s.052-.564.052-.829c0-2.384-1.386-4.273-3.914-4.273-2.65 0-4.487 1.942-4.487 4.715m2.322-1.166c.242-1.13 1.039-1.819 2.165-1.819.9 0 1.628.742 1.662 1.82zm8.134 5.668h2.2V27.37h.485c.277 0 .64.017.814.335l1.472 2.825c.347.653.641.777 1.386.777h1.629v-1.89h-.59c-.415 0-.589-.07-.727-.335l-1.005-1.942c-.312-.583-.623-.706-.623-.706v-.036s.277-.14.658-.706l2.235-3.39h-2.443l-1.801 2.843c-.19.282-.555.335-.832.335h-.658v-5.685c0-.83-.364-1.025-1.178-1.025h-2.096v1.907h.693c.243 0 .381.124.381.389zm9.609-3.214c0 2.455 1.16 3.426 3.048 3.426 1.525 0 2.633-.936 3.049-1.872h.035s-.018.195-.018.406v.248c0 .635.399 1.006 1.161 1.006h2.026v-1.89h-.692c-.243 0-.381-.14-.381-.388v-6.727h-2.2v4.132c0 1.607-.884 3.037-2.477 3.037-1.091 0-1.369-.742-1.369-1.837v-4.149c0-.812-.346-1.183-1.16-1.183H67.46v1.907h.693c.242 0 .38.123.38.388zm11.08 3.214h2.183V27.74c0-.53.07-1.024.19-1.465.399-1.342 1.473-1.89 2.407-1.89.312 0 .538.036.538.036v-2.207s-.208-.036-.398-.036c-1.352 0-2.408 1.024-2.807 2.313h-.034s.034-.23.034-.565v-.53c0-.759-.398-1.094-1.178-1.094H78.54v1.907h.693c.242 0 .381.123.381.388zm5.934-4.502c0 2.56 1.818 4.714 4.745 4.714 2.2 0 3.551-1.36 3.551-1.36l-.917-1.553s-1.057 1.006-2.477 1.006c-1.334 0-2.477-.83-2.65-2.42h6.096s.052-.564.052-.829c0-2.384-1.385-4.273-3.914-4.273-2.65 0-4.486 1.942-4.486 4.715m2.32-1.166c.243-1.13 1.04-1.819 2.166-1.819.9 0 1.628.742 1.662 1.82zm8.205 5.668h2.182v-4.132c0-.424.052-.83.173-1.2.312-1.077 1.196-1.837 2.373-1.837 1.109 0 1.386.742 1.386 1.837v4.131c0 .848.346 1.201 1.178 1.201h2.095v-1.89h-.692c-.243 0-.381-.14-.381-.388v-3.514c0-2.383-1.126-3.425-3.083-3.425-1.784 0-2.737 1.113-3.118 1.872h-.035s.035-.195.035-.389v-.265c0-.635-.381-1.006-1.16-1.006h-2.027v1.907h.693c.242 0 .38.123.38.388zm10.247-4.502c0 2.613 1.871 4.714 4.781 4.714 2.407 0 3.723-1.624 3.723-1.624l-.917-1.554s-1.109 1.218-2.616 1.218c-1.42 0-2.754-.936-2.754-2.772 0-1.625 1.092-2.808 2.616-2.808.537 0 1.264.212 1.264.707v.494h1.94v-1.06c0-1.553-2.061-2.03-3.204-2.03-3.032 0-4.833 2.172-4.833 4.715m10.671-5.969h1.922v-2.065h-1.922zm-2.235 12.184v1.89s.26.052.658.052c1.213 0 3.69-.37 3.69-3.39v-8.07c0-.83-.346-1.2-1.178-1.2h-2.096v1.907h.693c.243 0 .381.123.381.388v6.798c0 1.466-1.143 1.66-1.766 1.66-.226 0-.382-.035-.382-.035m6.179-4.309c0 1.802 1.437 2.808 3.013 2.808 1.993 0 2.668-1.59 2.668-1.59h.035s-.017.16-.017.39c0 .529.311.988 1.125.988h1.975v-1.89h-.693c-.242 0-.381-.14-.381-.388v-3.355c0-2.012-.866-3.584-3.811-3.584-.918 0-3.239.177-3.239 1.854v.954h2.044v-.477c0-.495.78-.6 1.178-.6 1.126 0 1.628.476 1.628 1.765v.07h-.277c-1.438 0-5.248.23-5.248 3.056m2.217-.105c0-1.254 1.818-1.413 2.961-1.413h.382v.212c0 1.095-.832 2.366-2.009 2.366-.901 0-1.334-.565-1.334-1.165m7.581 2.669h.857v-.89h-.857zm1.675-2.188c0 1.314.961 2.292 2.338 2.292 1.161 0 1.784-.752 1.784-.752l-.363-.598s-.537.606-1.36.606c-.814 0-1.542-.562-1.542-1.557 0-.926.642-1.566 1.499-1.566.32 0 .814.138.814.45v.242h.762v-.45c0-.744-1.048-.96-1.576-.96-1.412 0-2.356 1.003-2.356 2.293m4.618-.01c0 1.333 1.048 2.302 2.356 2.302s2.364-.969 2.364-2.301c0-1.324-1.057-2.284-2.364-2.284-1.308 0-2.356.96-2.356 2.284m.858 0c0-.907.675-1.556 1.498-1.556.831 0 1.507.649 1.507 1.557 0 .917-.676 1.574-1.507 1.574-.823 0-1.498-.657-1.498-1.574m4.911 2.198h.84V29.28c0-.2.017-.39.061-.562.164-.623.614-1.16 1.255-1.16.667 0 .753.528.753 1.099v2.621h.841V29.28c0-.225.026-.415.069-.597.156-.597.623-1.125 1.23-1.125.649 0 .77.485.77 1.099v2.068c0 .389.165.553.555.553H150v-.718h-.355c-.121 0-.191-.06-.191-.19v-1.895c0-1.116-.459-1.678-1.446-1.678-.71 0-1.316.467-1.559.995h-.017c-.147-.658-.571-.995-1.316-.995-.684 0-1.291.493-1.498 1.003h-.018s.009-.112.009-.25v-.165c0-.32-.173-.484-.554-.484h-.806v.718h.356c.12 0 .19.06.19.19z" fill="#3A3A3A"/>
  <path fill="#A26BE6" d="M15.557 31.953h10.704V42.7H15.557zm0-24.359h10.704v10.747H15.557z"/>
  <path fill="#8D49B0" stroke="#fff" stroke-width="1.789" d="M.895 15.797h18.62v18.701H.895z"/>
  <path fill="#B977DC" stroke="#fff" stroke-width=".895" d="M25.994 41.285h2.673v2.687h-2.673zm0-34.963h2.673v2.687h-2.673z"/>
  <path d="M34.967 0H29.97v5.015h4.996zm0 45.279H29.97v5.015h4.996z" fill="#844DC8"/>
  <path d="M39.82 7.738h-2.142v2.15h2.141zm0 32.669h-2.142v2.15h2.141z" fill="#B145D3"/>
</svg>
